<?xml version="1.0" encoding="UTF-8"?>
<svg xmlns="http://www.w3.org/2000/svg" xmlns:xlink="http://www.w3.org/1999/xlink" width="50pt" height="50pt" viewBox="0 0 50 50" version="1.1">
<g id="surface1">
<path style=" stroke:none;fill-rule:evenodd;fill:rgb(21.176471%,27.058824%,28.235294%);fill-opacity:1;" d="M 28.898438 19.75 L 33.398438 19.75 L 33.398438 24.351562 L 35.648438 24.351562 C 36.71875 24.335938 37.777344 24.167969 38.800781 23.851562 C 39.3125 23.648438 39.816406 23.414062 40.300781 23.148438 C 39.683594 22.300781 39.320312 21.296875 39.25 20.25 C 39.101562 18.851562 39.398438 17.050781 40.351562 15.949219 L 40.800781 15.398438 L 41.351562 15.851562 C 42.800781 17 43.949219 18.550781 44.199219 20.351562 C 45.933594 19.835938 47.796875 20.011719 49.398438 20.851562 L 50 21.199219 L 49.699219 21.851562 C 48.398438 24.300781 45.75 25.101562 43.148438 24.949219 C 39.300781 34.601562 30.851562 39.199219 20.601562 39.199219 C 15.300781 39.199219 10.449219 37.199219 7.648438 32.5 L 7.199219 31.648438 C 6.320312 29.585938 5.976562 27.332031 6.199219 25.101562 L 6.199219 24.351562 L 10.050781 24.351562 L 10.050781 19.75 L 14.5 19.75 L 14.5 15.300781 L 23.5 15.300781 L 23.5 10.800781 L 28.898438 10.800781 L 28.898438 19.75 "/>
<path style=" stroke:none;fill-rule:evenodd;fill:rgb(13.333333%,62.745098%,78.431373%);fill-opacity:1;" d="M 43.449219 21.449219 C 43.75 19.148438 42 17.300781 40.898438 16.398438 C 39.648438 17.851562 39.449219 21.648438 41.398438 23.25 C 40.351562 24.199219 38 25.101562 35.648438 25.101562 L 6.949219 25.101562 C 6.695312 27.382812 7.09375 29.6875 8.101562 31.75 L 8.449219 32.351562 C 8.648438 32.699219 8.898438 33.050781 9.148438 33.398438 C 10.300781 33.449219 11.398438 33.5 12.398438 33.449219 C 14.011719 33.46875 15.613281 33.234375 17.148438 32.75 C 17.242188 32.71875 17.34375 32.730469 17.429688 32.777344 C 17.515625 32.824219 17.578125 32.90625 17.601562 33 C 17.628906 33.175781 17.550781 33.351562 17.398438 33.449219 L 16.898438 33.601562 C 15.824219 33.890625 14.714844 34.058594 13.601562 34.101562 L 9.75 34.101562 C 12.148438 36.800781 15.898438 38.398438 20.601562 38.398438 C 30.5 38.398438 38.949219 34 42.648438 24.101562 C 45.300781 24.398438 47.851562 23.699219 49 21.449219 C 47.148438 20.398438 44.800781 20.75 43.449219 21.398438 "/>
<path style=" stroke:none;fill-rule:evenodd;fill:rgb(21.568627%,69.411765%,85.098039%);fill-opacity:1;" d="M 43.449219 21.449219 C 43.75 19.148438 42 17.300781 40.898438 16.398438 C 39.648438 17.851562 39.449219 21.648438 41.398438 23.25 C 40.351562 24.199219 38 25.101562 35.648438 25.101562 L 8.648438 25.101562 C 8.5 28.851562 9.898438 31.75 12.398438 33.449219 C 14.011719 33.46875 15.613281 33.234375 17.148438 32.75 C 17.242188 32.71875 17.34375 32.730469 17.429688 32.777344 C 17.515625 32.824219 17.578125 32.90625 17.601562 33 C 17.628906 33.175781 17.550781 33.351562 17.398438 33.449219 L 16.898438 33.601562 C 15.785156 33.882812 14.648438 34.066406 13.5 34.148438 L 13.449219 34.148438 C 16.851562 35.898438 21.75 35.898438 27.351562 33.75 C 33.761719 31.136719 39.367188 26.878906 43.601562 21.398438 L 43.449219 21.398438 "/>
<path style=" stroke:none;fill-rule:evenodd;fill:rgb(10.588235%,50.588235%,64.705882%);fill-opacity:1;" d="M 7 28.101562 C 7.152344 29.371094 7.523438 30.605469 8.101562 31.75 L 8.449219 32.351562 C 8.648438 32.699219 8.898438 33.050781 9.148438 33.398438 C 10.300781 33.449219 11.398438 33.5 12.398438 33.449219 C 14.011719 33.46875 15.613281 33.234375 17.148438 32.75 C 17.242188 32.71875 17.34375 32.730469 17.429688 32.777344 C 17.515625 32.824219 17.578125 32.90625 17.601562 33 C 17.628906 33.175781 17.550781 33.351562 17.398438 33.449219 L 16.898438 33.601562 C 15.785156 33.886719 14.648438 34.074219 13.5 34.148438 L 9.75 34.148438 C 12.148438 36.851562 15.898438 38.449219 20.601562 38.449219 C 29.101562 38.449219 36.5 35.199219 40.75 28.101562 L 7 28.101562 "/>
<path style=" stroke:none;fill-rule:evenodd;fill:rgb(11.372549%,56.862745%,70.588235%);fill-opacity:1;" d="M 8.898438 28.101562 C 9.3125 30.277344 10.570312 32.203125 12.398438 33.449219 C 14.011719 33.46875 15.613281 33.234375 17.148438 32.75 C 17.242188 32.71875 17.34375 32.730469 17.429688 32.777344 C 17.515625 32.824219 17.578125 32.90625 17.601562 33 C 17.628906 33.175781 17.550781 33.351562 17.398438 33.449219 L 16.898438 33.601562 C 15.785156 33.882812 14.648438 34.066406 13.5 34.148438 C 16.851562 35.851562 21.75 35.851562 27.351562 33.699219 C 30.824219 32.34375 34.0625 30.457031 36.949219 28.101562 L 8.898438 28.101562 "/>
<path style=" stroke:none;fill-rule:evenodd;fill:rgb(13.72549%,63.921569%,76.078431%);fill-opacity:1;" d="M 10.851562 20.5 L 14.699219 20.5 L 14.699219 24.398438 L 10.851562 24.398438 Z M 11.148438 20.851562 L 11.449219 20.851562 L 11.449219 24.101562 L 11.148438 24.101562 Z M 11.75 20.851562 L 12.050781 20.851562 L 12.050781 24.101562 L 11.75 24.101562 Z M 12.300781 20.851562 L 12.648438 20.851562 L 12.648438 24.101562 L 12.300781 24.101562 Z M 12.898438 20.851562 L 13.25 20.851562 L 13.25 24.101562 L 12.898438 24.101562 Z M 13.5 20.851562 L 13.800781 20.851562 L 13.800781 24.101562 L 13.5 24.101562 Z M 14.101562 20.851562 L 14.398438 20.851562 L 14.398438 24.101562 L 14.101562 24.101562 Z M 15.300781 16.050781 L 19.199219 16.050781 L 19.199219 19.898438 L 15.300781 19.898438 Z M 15.648438 16.351562 L 15.949219 16.351562 L 15.949219 19.601562 L 15.648438 19.601562 Z M 16.199219 16.351562 L 16.550781 16.351562 L 16.550781 19.601562 L 16.199219 19.601562 Z M 16.800781 16.351562 L 17.101562 16.351562 L 17.101562 19.601562 L 16.800781 19.601562 Z M 17.398438 16.351562 L 17.699219 16.351562 L 17.699219 19.601562 L 17.398438 19.601562 Z M 18 16.351562 L 18.300781 16.351562 L 18.300781 19.601562 L 18 19.601562 Z M 18.550781 16.351562 L 18.898438 16.351562 L 18.898438 19.601562 L 18.550781 19.601562 Z M 18.550781 16.351562 "/>
<path style=" stroke:none;fill-rule:evenodd;fill:rgb(20.392157%,73.333333%,87.058824%);fill-opacity:1;" d="M 15.300781 20.5 L 19.199219 20.5 L 19.199219 24.398438 L 15.300781 24.398438 Z M 15.648438 20.851562 L 15.949219 20.851562 L 15.949219 24.101562 L 15.648438 24.101562 Z M 16.199219 20.851562 L 16.550781 20.851562 L 16.550781 24.101562 L 16.199219 24.101562 Z M 16.800781 20.851562 L 17.101562 20.851562 L 17.101562 24.101562 L 16.800781 24.101562 Z M 17.398438 20.851562 L 17.699219 20.851562 L 17.699219 24.101562 L 17.398438 24.101562 Z M 18 20.851562 L 18.300781 20.851562 L 18.300781 24.101562 L 18 24.101562 Z M 18.550781 20.851562 L 18.898438 20.851562 L 18.898438 24.101562 L 18.550781 24.101562 Z M 18.550781 20.851562 "/>
<path style=" stroke:none;fill-rule:evenodd;fill:rgb(13.72549%,63.921569%,76.078431%);fill-opacity:1;" d="M 19.800781 20.5 L 23.699219 20.5 L 23.699219 24.398438 L 19.800781 24.398438 Z M 20.101562 20.851562 L 20.449219 20.851562 L 20.449219 24.101562 L 20.101562 24.101562 Z M 20.699219 20.851562 L 21 20.851562 L 21 24.101562 L 20.699219 24.101562 Z M 21.300781 20.851562 L 21.601562 20.851562 L 21.601562 24.101562 L 21.300781 24.101562 Z M 21.898438 20.851562 L 22.199219 20.851562 L 22.199219 24.101562 L 21.898438 24.101562 Z M 22.449219 20.851562 L 22.800781 20.851562 L 22.800781 24.101562 L 22.449219 24.101562 Z M 23.050781 20.851562 L 23.351562 20.851562 L 23.351562 24.101562 L 23.050781 24.101562 Z M 23.050781 20.851562 "/>
<path style=" stroke:none;fill-rule:evenodd;fill:rgb(20.392157%,73.333333%,87.058824%);fill-opacity:1;" d="M 19.800781 16.050781 L 23.699219 16.050781 L 23.699219 19.898438 L 19.800781 19.898438 Z M 20.101562 16.351562 L 20.449219 16.351562 L 20.449219 19.601562 L 20.101562 19.601562 Z M 20.699219 16.351562 L 21 16.351562 L 21 19.601562 L 20.699219 19.601562 Z M 21.300781 16.351562 L 21.601562 16.351562 L 21.601562 19.601562 L 21.300781 19.601562 Z M 21.898438 16.351562 L 22.199219 16.351562 L 22.199219 19.601562 L 21.898438 19.601562 Z M 22.449219 16.351562 L 22.800781 16.351562 L 22.800781 19.601562 L 22.449219 19.601562 Z M 23.050781 16.351562 L 23.351562 16.351562 L 23.351562 19.601562 L 23.050781 19.601562 Z M 24.300781 20.5 L 28.148438 20.5 L 28.148438 24.398438 L 24.300781 24.398438 Z M 24.601562 20.851562 L 24.898438 20.851562 L 24.898438 24.101562 L 24.601562 24.101562 Z M 25.199219 20.851562 L 25.5 20.851562 L 25.5 24.101562 L 25.199219 24.101562 Z M 25.75 20.851562 L 26.101562 20.851562 L 26.101562 24.101562 L 25.75 24.101562 Z M 26.351562 20.851562 L 26.699219 20.851562 L 26.699219 24.101562 L 26.351562 24.101562 Z M 26.949219 20.851562 L 27.25 20.851562 L 27.25 24.101562 L 26.949219 24.101562 Z M 27.550781 20.851562 L 27.851562 20.851562 L 27.851562 24.101562 L 27.550781 24.101562 Z M 27.550781 20.851562 "/>
<path style=" stroke:none;fill-rule:evenodd;fill:rgb(13.72549%,63.921569%,76.078431%);fill-opacity:1;" d="M 24.300781 16.050781 L 28.148438 16.050781 L 28.148438 19.898438 L 24.300781 19.898438 Z M 24.601562 16.351562 L 24.898438 16.351562 L 24.898438 19.601562 L 24.601562 19.601562 Z M 25.199219 16.351562 L 25.5 16.351562 L 25.5 19.601562 L 25.199219 19.601562 Z M 25.75 16.351562 L 26.101562 16.351562 L 26.101562 19.601562 L 25.75 19.601562 Z M 26.351562 16.351562 L 26.699219 16.351562 L 26.699219 19.601562 L 26.351562 19.601562 Z M 26.949219 16.351562 L 27.25 16.351562 L 27.25 19.601562 L 26.949219 19.601562 Z M 27.550781 16.351562 L 27.851562 16.351562 L 27.851562 19.601562 L 27.550781 19.601562 Z M 27.550781 16.351562 "/>
<path style=" stroke:none;fill-rule:evenodd;fill:rgb(20.392157%,73.333333%,87.058824%);fill-opacity:1;" d="M 24.300781 11.550781 L 28.148438 11.550781 L 28.148438 15.449219 L 24.300781 15.449219 Z M 24.601562 11.898438 L 24.898438 11.898438 L 24.898438 15.101562 L 24.601562 15.101562 Z M 25.199219 11.898438 L 25.5 11.898438 L 25.5 15.101562 L 25.199219 15.101562 Z M 25.75 11.898438 L 26.101562 11.898438 L 26.101562 15.101562 L 25.75 15.101562 Z M 26.351562 11.898438 L 26.699219 11.898438 L 26.699219 15.101562 L 26.351562 15.101562 Z M 26.949219 11.898438 L 27.25 11.898438 L 27.25 15.101562 L 26.949219 15.101562 Z M 27.550781 11.898438 L 27.851562 11.898438 L 27.851562 15.101562 L 27.550781 15.101562 Z M 27.550781 11.898438 "/>
<path style=" stroke:none;fill-rule:evenodd;fill:rgb(13.72549%,63.921569%,76.078431%);fill-opacity:1;" d="M 28.75 20.5 L 32.648438 20.5 L 32.648438 24.398438 L 28.75 24.398438 Z M 29.101562 20.851562 L 29.398438 20.851562 L 29.398438 24.101562 L 29.101562 24.101562 Z M 29.648438 20.851562 L 30 20.851562 L 30 24.101562 L 29.648438 24.101562 Z M 30.25 20.851562 L 30.550781 20.851562 L 30.550781 24.101562 L 30.25 24.101562 Z M 30.851562 20.851562 L 31.148438 20.851562 L 31.148438 24.101562 L 30.851562 24.101562 Z M 31.449219 20.851562 L 31.75 20.851562 L 31.75 24.101562 L 31.449219 24.101562 Z M 32 20.851562 L 32.300781 20.851562 L 32.300781 24.101562 L 32 24.101562 Z M 32 20.851562 "/>
<path style=" stroke:none;fill-rule:evenodd;fill:rgb(82.745098%,92.54902%,92.54902%);fill-opacity:1;" d="M 18.949219 30.699219 C 19.457031 30.796875 19.832031 31.238281 19.84375 31.753906 C 19.855469 32.273438 19.503906 32.730469 19 32.851562 L 18.949219 32.851562 C 18.664062 32.851562 18.386719 32.734375 18.1875 32.523438 C 17.992188 32.316406 17.886719 32.035156 17.898438 31.75 C 17.925781 31.179688 18.382812 30.726562 18.949219 30.699219 "/>
<path style=" stroke:none;fill-rule:evenodd;fill:rgb(21.176471%,27.058824%,28.235294%);fill-opacity:1;" d="M 18.949219 31 L 19.25 31 C 19.105469 31.101562 19.046875 31.285156 19.101562 31.449219 C 19.175781 31.535156 19.285156 31.589844 19.398438 31.601562 C 19.507812 31.609375 19.609375 31.546875 19.648438 31.449219 C 19.734375 31.636719 19.738281 31.847656 19.660156 32.035156 C 19.585938 32.222656 19.4375 32.371094 19.25 32.449219 C 18.851562 32.589844 18.410156 32.390625 18.25 32 C 18.105469 31.613281 18.277344 31.179688 18.648438 31 L 18.949219 31 M 0 28.5 L 49.851562 28.5 C 48.75 28.199219 46.398438 27.851562 46.800781 26.398438 C 44.851562 28.699219 40.101562 28 38.851562 26.898438 C 37.550781 28.851562 29.75 28.101562 29.199219 26.601562 C 27.550781 28.550781 22.351562 28.550781 20.648438 26.601562 C 20.101562 28.101562 12.300781 28.851562 11 26.898438 C 9.800781 28 5 28.699219 3.050781 26.398438 C 3.449219 27.851562 1.101562 28.199219 0 28.5 "/>
<path style=" stroke:none;fill-rule:evenodd;fill:rgb(74.117647%,85.098039%,84.313725%);fill-opacity:1;" d="M 21.800781 38.398438 C 19.148438 37.148438 17.699219 35.449219 16.898438 33.601562 C 15.738281 33.890625 14.546875 34.058594 13.351562 34.101562 L 9.601562 34.101562 C 12.050781 36.550781 15.050781 38.398438 20.601562 38.449219 L 21.800781 38.449219 "/>
<path style=" stroke:none;fill-rule:evenodd;fill:rgb(82.745098%,92.54902%,92.54902%);fill-opacity:1;" d="M 17.851562 35.300781 C 17.476562 34.769531 17.15625 34.199219 16.898438 33.601562 C 15.738281 33.890625 14.546875 34.058594 13.351562 34.101562 C 14.300781 34.648438 15.648438 35.101562 17.851562 35.300781 "/>
</g>
</svg>
