<?xml version="1.0" encoding="UTF-8"?>
<svg xmlns="http://www.w3.org/2000/svg" xmlns:xlink="http://www.w3.org/1999/xlink" width="50px" height="50px" viewBox="0 0 50 50" version="1.1">
<g id="surface1">
<path style=" stroke:none;fill-rule:nonzero;fill:rgb(0%,45.490196%,74.117647%);fill-opacity:1;" d="M 20.539062 26.492188 C 20.539062 26.492188 19.257812 27.238281 21.453125 27.488281 C 24.117188 27.792969 25.476562 27.75 28.410156 27.195312 C 28.410156 27.195312 29.183594 27.679688 30.257812 28.097656 C 23.683594 30.914062 15.375 27.933594 20.539062 26.492188 Z M 19.734375 22.8125 C 19.734375 22.8125 18.296875 23.878906 20.496094 24.105469 C 23.339844 24.398438 25.582031 24.425781 29.472656 23.675781 C 29.472656 23.675781 30.007812 24.222656 30.851562 24.519531 C 22.902344 26.84375 14.046875 24.703125 19.734375 22.8125 Z M 19.734375 22.8125 "/>
<path style=" stroke:none;fill-rule:nonzero;fill:rgb(91.764706%,17.647059%,18.039216%);fill-opacity:1;" d="M 26.507812 16.574219 C 28.132812 18.441406 26.085938 20.117188 26.085938 20.117188 C 26.085938 20.117188 30.199219 17.996094 28.308594 15.335938 C 26.542969 12.855469 25.191406 11.621094 32.515625 7.375 C 32.515625 7.375 21.019531 10.246094 26.507812 16.574219 Z M 26.507812 16.574219 "/>
<path style=" stroke:none;fill-rule:nonzero;fill:rgb(0%,45.490196%,74.117647%);fill-opacity:1;" d="M 35.207031 29.210938 C 35.207031 29.210938 36.15625 29.996094 34.160156 30.601562 C 30.367188 31.75 18.363281 32.097656 15.027344 30.644531 C 13.832031 30.125 16.078125 29.402344 16.785156 29.25 C 17.523438 29.089844 17.945312 29.117188 17.945312 29.117188 C 16.609375 28.179688 9.328125 30.960938 14.246094 31.761719 C 27.652344 33.933594 38.683594 30.78125 35.207031 29.210938 Z M 21.15625 19.003906 C 21.15625 19.003906 15.050781 20.453125 18.996094 20.980469 C 20.660156 21.203125 23.980469 21.152344 27.070312 20.890625 C 29.597656 20.679688 32.132812 20.226562 32.132812 20.226562 C 32.132812 20.226562 31.246094 20.609375 30.601562 21.046875 C 24.398438 22.679688 12.421875 21.917969 15.871094 20.253906 C 18.785156 18.84375 21.15625 19.003906 21.15625 19.003906 Z M 32.109375 25.125 C 38.414062 21.851562 35.496094 18.703125 33.464844 19.125 C 32.964844 19.230469 32.742188 19.320312 32.742188 19.320312 C 32.742188 19.320312 32.929688 19.03125 33.28125 18.90625 C 37.304688 17.492188 40.398438 23.078125 31.984375 25.289062 C 31.984375 25.289062 32.078125 25.203125 32.109375 25.125 Z M 32.109375 25.125 "/>
<path style=" stroke:none;fill-rule:nonzero;fill:rgb(91.764706%,17.647059%,18.039216%);fill-opacity:1;" d="M 28.308594 0.511719 C 28.308594 0.511719 31.800781 4.003906 25 9.371094 C 19.546875 13.679688 23.753906 16.136719 24.996094 18.941406 C 21.8125 16.070312 19.476562 13.539062 21.042969 11.1875 C 23.34375 7.734375 29.71875 6.058594 28.308594 0.511719 Z M 28.308594 0.511719 "/>
<path style=" stroke:none;fill-rule:nonzero;fill:rgb(0%,45.490196%,74.117647%);fill-opacity:1;" d="M 21.777344 34 C 27.824219 34.386719 37.117188 33.785156 37.335938 30.921875 C 37.335938 30.921875 36.914062 32.007812 32.335938 32.867188 C 27.171875 33.839844 20.804688 33.726562 17.027344 33.101562 C 17.027344 33.101562 17.800781 33.742188 21.777344 34 Z M 21.777344 34 "/>
<path style=" stroke:none;fill-rule:nonzero;fill:rgb(91.764706%,17.647059%,18.039216%);fill-opacity:1;" d="M 37.058594 39.132812 L 36.871094 39.132812 L 36.871094 39.03125 L 37.367188 39.03125 L 37.367188 39.132812 L 37.183594 39.132812 L 37.183594 39.648438 L 37.054688 39.648438 Z M 38.046875 39.160156 L 37.863281 39.648438 L 37.777344 39.648438 L 37.597656 39.160156 L 37.59375 39.160156 L 37.59375 39.648438 L 37.472656 39.648438 L 37.472656 39.03125 L 37.652344 39.03125 L 37.820312 39.46875 L 37.988281 39.03125 L 38.164062 39.03125 L 38.164062 39.648438 L 38.046875 39.648438 Z M 20.785156 44.9375 C 20.214844 45.429688 19.613281 45.710938 19.070312 45.710938 C 18.300781 45.710938 17.882812 45.246094 17.882812 44.503906 C 17.882812 43.703125 18.328125 43.113281 20.121094 43.113281 L 20.785156 43.113281 Z M 22.359375 46.710938 L 22.359375 41.214844 C 22.359375 39.808594 21.558594 38.882812 19.625 38.882812 C 18.5 38.882812 17.511719 39.160156 16.707031 39.515625 L 16.9375 40.488281 C 17.570312 40.257812 18.390625 40.039062 19.195312 40.039062 C 20.304688 40.039062 20.785156 40.488281 20.785156 41.414062 L 20.785156 42.109375 L 20.230469 42.109375 C 17.523438 42.109375 16.304688 43.160156 16.304688 44.738281 C 16.304688 46.09375 17.109375 46.867188 18.625 46.867188 C 19.597656 46.867188 20.324219 46.464844 21 45.878906 L 21.125 46.714844 L 22.359375 46.714844 Z M 27.613281 46.710938 L 25.652344 46.710938 L 23.289062 39.023438 L 25.003906 39.023438 L 26.46875 43.746094 L 26.796875 45.167969 C 27.535156 43.113281 28.0625 41.027344 28.324219 39.023438 L 29.992188 39.023438 C 29.546875 41.554688 28.742188 44.332031 27.613281 46.710938 Z M 35.148438 44.9375 C 34.578125 45.429688 33.972656 45.710938 33.433594 45.710938 C 32.660156 45.710938 32.242188 45.246094 32.242188 44.503906 C 32.242188 43.703125 32.691406 43.113281 34.484375 43.113281 L 35.148438 43.113281 Z M 36.726562 46.710938 L 36.726562 41.214844 C 36.726562 39.808594 35.921875 38.882812 33.992188 38.882812 C 32.863281 38.882812 31.875 39.160156 31.070312 39.515625 L 31.300781 40.488281 C 31.933594 40.257812 32.753906 40.039062 33.558594 40.039062 C 34.667969 40.039062 35.148438 40.488281 35.148438 41.414062 L 35.148438 42.109375 L 34.59375 42.109375 C 31.890625 42.109375 30.667969 43.160156 30.667969 44.738281 C 30.667969 46.09375 31.472656 46.867188 32.984375 46.867188 C 33.957031 46.867188 34.683594 46.464844 35.363281 45.878906 L 35.488281 46.714844 L 36.726562 46.714844 Z M 14.578125 48.019531 C 14.132812 48.675781 13.40625 49.195312 12.613281 49.488281 L 11.835938 48.570312 C 12.4375 48.261719 12.957031 47.761719 13.199219 47.292969 C 13.40625 46.878906 13.492188 46.34375 13.492188 45.066406 L 13.492188 36.285156 L 15.164062 36.285156 L 15.164062 44.945312 C 15.164062 46.65625 15.027344 47.347656 14.578125 48.019531 Z M 14.578125 48.019531 "/>
</g>
</svg>
